<svg width="40" height="41" viewBox="0 0 40 41" fill="none" xmlns="http://www.w3.org/2000/svg">
<path d="M19.9758 24.0057L16.3438 20.3125L19.9758 16.6193L23.6078 20.3125L19.9758 24.0057ZM16.1169 13.157L11.5769 8.54048L19.9758 0L28.3747 8.54048L23.8348 13.157L19.9758 9.23295L16.1169 13.157ZM8.39892 28.853L0 20.3125L8.39892 11.772L12.9389 16.3885L9.07992 20.3125L12.9389 24.2365L8.39892 28.853ZM31.5527 28.853L27.0128 24.2365L30.8717 20.3125L27.0128 16.3885L31.5527 11.772L39.9516 20.3125L31.5527 28.853ZM19.9758 40.625L11.5769 32.0845L16.1169 27.468L19.9758 31.392L23.8348 27.468L28.3747 32.0845L19.9758 40.625Z" fill="#CE3415"/>
</svg>
