<svg width="40" height="41" viewBox="0 0 40 41" fill="none" xmlns="http://www.w3.org/2000/svg">
<path d="M0 36.784V33.0909H39.9516V36.784H0ZM5.44795 31.2443C4.44916 31.2443 3.59413 30.8826 2.88287 30.1594C2.17161 29.4361 1.81598 28.5667 1.81598 27.5511V7.23859C1.81598 6.22297 2.17161 5.35353 2.88287 4.63028C3.59413 3.90703 4.44916 3.54541 5.44795 3.54541H34.5037C35.5025 3.54541 36.3575 3.90703 37.0688 4.63028C37.78 5.35353 38.1357 6.22297 38.1357 7.23859V27.5511C38.1357 28.5667 37.78 29.4361 37.0688 30.1594C36.3575 30.8826 35.5025 31.2443 34.5037 31.2443H5.44795ZM5.44795 27.5511H34.5037V7.23859H5.44795V27.5511Z" fill="#CE3415"/>
</svg>
