<svg width="39" height="41" viewBox="0 0 39 41" fill="none" xmlns="http://www.w3.org/2000/svg">
<path d="M17.5397 30.3368H21.4375V18.2021H17.5397V30.3368ZM19.4886 14.1572C20.0408 14.1572 20.5036 13.9634 20.8772 13.5757C21.2507 13.1881 21.4375 12.7078 21.4375 12.1347C21.4375 11.5617 21.2507 11.0814 20.8772 10.6937C20.5036 10.3061 20.0408 10.1123 19.4886 10.1123C18.9364 10.1123 18.4736 10.3061 18.1 10.6937C17.7265 11.0814 17.5397 11.5617 17.5397 12.1347C17.5397 12.7078 17.7265 13.1881 18.1 13.5757C18.4736 13.9634 18.9364 14.1572 19.4886 14.1572ZM19.4886 40.4491C16.7927 40.4491 14.2592 39.9182 11.888 38.8564C9.51693 37.7947 7.45439 36.3537 5.70042 34.5334C3.94644 32.7132 2.55788 30.5728 1.53473 28.1121C0.511576 25.6515 0 23.0223 0 20.2246C0 17.4268 0.511576 14.7976 1.53473 12.337C2.55788 9.87633 3.94644 7.7359 5.70042 5.91568C7.45439 4.09547 9.51693 2.65447 11.888 1.59268C14.2592 0.530895 16.7927 0 19.4886 0C22.1845 0 24.718 0.530895 27.0892 1.59268C29.4603 2.65447 31.5228 4.09547 33.2768 5.91568C35.0308 7.7359 36.4193 9.87633 37.4425 12.337C38.4656 14.7976 38.9772 17.4268 38.9772 20.2246C38.9772 23.0223 38.4656 25.6515 37.4425 28.1121C36.4193 30.5728 35.0308 32.7132 33.2768 34.5334C31.5228 36.3537 29.4603 37.7947 27.0892 38.8564C24.718 39.9182 22.1845 40.4491 19.4886 40.4491ZM19.4886 36.4042C23.8411 36.4042 27.5277 34.8368 30.5484 31.702C33.5691 28.5672 35.0795 24.7414 35.0795 20.2246C35.0795 15.7077 33.5691 11.8819 30.5484 8.74712C27.5277 5.61232 23.8411 4.04491 19.4886 4.04491C15.1361 4.04491 11.4496 5.61232 8.42882 8.74712C5.40809 11.8819 3.89772 15.7077 3.89772 20.2246C3.89772 24.7414 5.40809 28.5672 8.42882 31.702C11.4496 34.8368 15.1361 36.4042 19.4886 36.4042Z" fill="#CE3415"/>
</svg>
