<svg width="39" height="41" viewBox="0 0 39 41" fill="none" xmlns="http://www.w3.org/2000/svg">
<path d="M12.5389 14.7727V11.0795H27.0667V14.7727H12.5389ZM10.7229 40.625C9.72409 40.625 8.86906 40.2634 8.1578 39.5401C7.44654 38.8169 7.09091 37.9474 7.09091 36.9318V3.69318C7.09091 2.67756 7.44654 1.80812 8.1578 1.08487C8.86906 0.361624 9.72409 0 10.7229 0H28.8827C29.8815 0 30.7365 0.361624 31.4478 1.08487C32.159 1.80812 32.5147 2.67756 32.5147 3.69318V36.9318C32.5147 37.9474 32.159 38.8169 31.4478 39.5401C30.7365 40.2634 29.8815 40.625 28.8827 40.625H10.7229ZM10.7229 35.0852V36.9318H28.8827V35.0852H10.7229ZM10.7229 31.392H28.8827V9.23295H10.7229V31.392ZM10.7229 5.53977H28.8827V3.69318H10.7229V5.53977Z" fill="#CE3415"/>
</svg>
