<svg width="41" height="47" viewBox="0 0 41 47" fill="none" xmlns="http://www.w3.org/2000/svg">
<path d="M17.927 46.875L15.0587 43.9062L18.7978 40.1042H11.9343C11.4904 41.3194 10.7477 42.3177 9.7062 43.099C8.66473 43.8802 7.47813 44.2708 6.14641 44.2708C4.43907 44.2708 2.98784 43.6632 1.7927 42.4479C0.597567 41.2326 0 39.7569 0 38.0208C0 36.6667 0.38415 35.4601 1.15245 34.401C1.92075 33.342 2.90247 32.5868 4.0976 32.1354V14.7396C2.90247 14.2882 1.92075 13.533 1.15245 12.474C0.38415 11.4149 0 10.2083 0 8.85417C0 7.11806 0.597567 5.64236 1.7927 4.42708C2.98784 3.21181 4.43907 2.60417 6.14641 2.60417C7.47813 2.60417 8.66473 2.99479 9.7062 3.77604C10.7477 4.55729 11.4904 5.55556 11.9343 6.77083H18.7978L15.0587 2.96875L17.927 0L26.6344 8.85417L17.927 17.7083L15.0587 14.7396L18.7978 10.9375H11.9343C11.627 11.8403 11.1489 12.6215 10.5001 13.2812C9.85132 13.941 9.08302 14.4271 8.19521 14.7396V32.1354C9.08302 32.4479 9.85132 32.934 10.5001 33.5938C11.1489 34.2535 11.627 35.0347 11.9343 35.9375H18.7978L15.0587 32.1354L17.927 29.1667L26.6344 38.0208L17.927 46.875ZM34.8296 44.2708C33.1223 44.2708 31.6711 43.6632 30.4759 42.4479C29.2808 41.2326 28.6832 39.7569 28.6832 38.0208C28.6832 36.6319 29.0674 35.408 29.8357 34.349C30.604 33.2899 31.5857 32.5521 32.7808 32.1354V14.7396C31.5857 14.3229 30.604 13.5851 29.8357 12.526C29.0674 11.467 28.6832 10.2431 28.6832 8.85417C28.6832 7.11806 29.2808 5.64236 30.4759 4.42708C31.6711 3.21181 33.1223 2.60417 34.8296 2.60417C36.537 2.60417 37.9882 3.21181 39.1833 4.42708C40.3785 5.64236 40.976 7.11806 40.976 8.85417C40.976 10.2431 40.5919 11.467 39.8236 12.526C39.0553 13.5851 38.0736 14.3229 36.8784 14.7396V32.1354C38.0736 32.5868 39.0553 33.342 39.8236 34.401C40.5919 35.4601 40.976 36.6667 40.976 38.0208C40.976 39.7569 40.3785 41.2326 39.1833 42.4479C37.9882 43.6632 36.537 44.2708 34.8296 44.2708ZM6.14641 40.1042C6.7269 40.1042 7.21349 39.9045 7.60618 39.5052C7.99886 39.1059 8.19521 38.6111 8.19521 38.0208C8.19521 37.4306 7.99886 36.9358 7.60618 36.5365C7.21349 36.1372 6.7269 35.9375 6.14641 35.9375C5.56591 35.9375 5.07932 36.1372 4.68663 36.5365C4.29395 36.9358 4.0976 37.4306 4.0976 38.0208C4.0976 38.6111 4.29395 39.1059 4.68663 39.5052C5.07932 39.9045 5.56591 40.1042 6.14641 40.1042ZM34.8296 40.1042C35.4101 40.1042 35.8967 39.9045 36.2894 39.5052C36.6821 39.1059 36.8784 38.6111 36.8784 38.0208C36.8784 37.4306 36.6821 36.9358 36.2894 36.5365C35.8967 36.1372 35.4101 35.9375 34.8296 35.9375C34.2491 35.9375 33.7626 36.1372 33.3699 36.5365C32.9772 36.9358 32.7808 37.4306 32.7808 38.0208C32.7808 38.6111 32.9772 39.1059 33.3699 39.5052C33.7626 39.9045 34.2491 40.1042 34.8296 40.1042ZM6.14641 10.9375C6.7269 10.9375 7.21349 10.7378 7.60618 10.3385C7.99886 9.93924 8.19521 9.44444 8.19521 8.85417C8.19521 8.26389 7.99886 7.7691 7.60618 7.36979C7.21349 6.97049 6.7269 6.77083 6.14641 6.77083C5.56591 6.77083 5.07932 6.97049 4.68663 7.36979C4.29395 7.7691 4.0976 8.26389 4.0976 8.85417C4.0976 9.44444 4.29395 9.93924 4.68663 10.3385C5.07932 10.7378 5.56591 10.9375 6.14641 10.9375ZM34.8296 10.9375C35.4101 10.9375 35.8967 10.7378 36.2894 10.3385C36.6821 9.93924 36.8784 9.44444 36.8784 8.85417C36.8784 8.26389 36.6821 7.7691 36.2894 7.36979C35.8967 6.97049 35.4101 6.77083 34.8296 6.77083C34.2491 6.77083 33.7626 6.97049 33.3699 7.36979C32.9772 7.7691 32.7808 8.26389 32.7808 8.85417C32.7808 9.44444 32.9772 9.93924 33.3699 10.3385C33.7626 10.7378 34.2491 10.9375 34.8296 10.9375Z" fill="#CE3415"/>
</svg>
