<svg width="174" height="36" viewBox="0 0 174 36" fill="none" xmlns="http://www.w3.org/2000/svg">
<path d="M65.5072 29.1853L56.8779 6.54955H62.8848L69.0916 23.4607H69.2902L75.4633 6.54955H81.3702L72.7422 29.1853H65.5072Z" fill="#3943B7"/>
<path d="M95.3755 29.4492C93.7559 29.4673 92.1371 29.374 90.5305 29.1699C89.2245 28.9828 88.1941 28.6547 87.4394 28.1853C86.6884 27.715 86.0892 27.041 85.7128 26.2432C85.3138 25.4213 85.0594 24.4127 84.9495 23.2175C84.8395 22.0223 84.7841 20.58 84.7833 18.8906V6.54955H90.5253V19.8057C90.5253 20.9674 90.5587 21.894 90.6253 22.5856C90.6919 23.2771 90.8689 23.7979 91.1563 24.148C91.4436 24.4989 91.9196 24.7349 92.5843 24.8559C93.249 24.9768 94.1673 25.0369 95.3392 25.036C96.2333 25.0536 97.1274 24.9933 98.0109 24.8559C98.6626 24.7349 99.1386 24.4989 99.439 24.148C99.7393 23.7971 99.9219 23.2763 99.9868 22.5856C100.053 21.894 100.086 20.9674 100.087 19.8057V6.54955H105.799V18.888C105.799 20.5766 105.738 22.0189 105.617 23.2149C105.496 24.411 105.253 25.4196 104.888 26.2407C104.539 27.0442 103.95 27.7222 103.2 28.1828C102.437 28.6538 101.419 28.9828 100.146 29.1699C98.5649 29.375 96.9705 29.4684 95.3755 29.4492Z" fill="#3943B7"/>
<path d="M111.671 29.1853V6.54955H117.678L127.766 20.1377H127.932V6.54955H133.376V29.1853H127.966L117.279 14.6113H117.113V29.1853H111.671Z" fill="#3943B7"/>
<path d="M139.349 29.1853V6.54955H145.091V29.1853H139.349Z" fill="#3943B7"/>
<path d="M151.098 29.1853V6.54955H156.81V15.5972H159.796L167.396 6.54955H173.868L164.607 17.3089L174 29.1853H167.262L159.796 19.7439H156.81V29.1853H151.098Z" fill="#3943B7"/>
<path d="M11.8827 35.9987H0V0H11.8827V18.7477C13.634 18.0592 15.4372 17.5212 17.2054 16.9923C25.2453 14.5933 30.5564 13.0026 30.5564 0.003861H42.4416C42.4416 21.7709 29.3165 25.6873 20.6314 28.2793C13.3211 30.4595 11.8827 31.2973 11.8827 35.9987Z" fill="#3943B7"/>
<path d="M42.4286 24.26H30.5862V36H42.4286V24.26Z" fill="#3943B7"/>
</svg>
